<?xml version="1.0" encoding="UTF-8" standalone="no"?>
<!-- Created with Inkscape (http://www.inkscape.org/) -->

<svg
   width="512"
   height="512"
   viewBox="0 0 135.46667 135.46667"
   version="1.1"
   id="svg5"
   inkscape:version="1.1 (c4e8f9e, 2021-05-24)"
   sodipodi:docname="icon_fontpath.svg"
   xmlns:inkscape="http://www.inkscape.org/namespaces/inkscape"
   xmlns:sodipodi="http://sodipodi.sourceforge.net/DTD/sodipodi-0.dtd"
   xmlns="http://www.w3.org/2000/svg"
   xmlns:svg="http://www.w3.org/2000/svg">
  <sodipodi:namedview
     id="namedview7"
     pagecolor="#ffffff"
     bordercolor="#666666"
     borderopacity="1.0"
     inkscape:pageshadow="2"
     inkscape:pageopacity="0.0"
     inkscape:pagecheckerboard="0"
     inkscape:document-units="px"
     showgrid="false"
     inkscape:zoom="0.87942369"
     inkscape:cx="450.86345"
     inkscape:cy="222.30468"
     inkscape:window-width="1440"
     inkscape:window-height="777"
     inkscape:window-x="0"
     inkscape:window-y="25"
     inkscape:window-maximized="1"
     inkscape:current-layer="layer1" />
  <defs
     id="defs2">
    <rect
       x="40.9359"
       y="53.444092"
       width="133.04167"
       height="117.12216"
       id="rect48501" />
    <rect
       x="44.347225"
       y="53.444092"
       width="45.484333"
       height="75.04915"
       id="rect29873" />
    <rect
       x="32.976142"
       y="52.306983"
       width="171.70336"
       height="166.01782"
       id="rect21349" />
    <rect
       x="45.484333"
       y="53.444092"
       width="156.92095"
       height="148.96119"
       id="rect18871" />
    <rect
       x="52.306983"
       y="78.460475"
       width="144.41276"
       height="126.21902"
       id="rect17941" />
    <rect
       x="65.952283"
       y="78.460475"
       width="138.72722"
       height="126.21902"
       id="rect16055" />
    <rect
       x="42.073008"
       y="46.621442"
       width="152.37252"
       height="153.50962"
       id="rect12801" />
    <rect
       x="27.972759"
       y="33.300903"
       width="78.590127"
       height="118.55122"
       id="rect6327" />
    <rect
       x="70.597914"
       y="118.55121"
       width="125.2114"
       height="99.902709"
       id="rect3989" />
  </defs>
  <g
     inkscape:label="Layer 1"
     inkscape:groupmode="layer"
     id="layer1">
    <ellipse
       style="fill:#fff6d5;stroke-width:0.909504"
       id="path337-2-0-6"
       cx="38.663437"
       cy="91.492531"
       rx="63.936466"
       ry="49.418591"
       transform="matrix(0.90420045,-0.42710836,0.36467687,0.93113414,0,0)" />
    <ellipse
       style="fill:#241c1c;stroke-width:0.219478"
       id="path337"
       cx="44.693546"
       cy="140.39479"
       rx="15.343615"
       ry="11.99181"
       transform="matrix(0.90149508,-0.43278934,0.3595767,0.93311553,0,0)" />
    <rect
       style="fill:#241c1c;stroke-width:0.21913"
       id="rect520"
       width="54.151386"
       height="1.8502623"
       x="63.837013"
       y="110.73623" />
    <ellipse
       style="fill:#241c1c;stroke-width:0.219478"
       id="path337-2"
       cx="53.741108"
       cy="117.32652"
       rx="15.343615"
       ry="11.99181"
       transform="matrix(0.90149508,-0.43278934,0.3595767,0.93311553,0,0)" />
    <ellipse
       style="fill:#241c1c;stroke-width:0.219478"
       id="path337-2-0"
       cx="63.047474"
       cy="94.378868"
       rx="15.343615"
       ry="11.99181"
       transform="matrix(0.90149508,-0.43278934,0.3595767,0.93311553,0,0)" />
    <rect
       style="fill:#241c1c;stroke-width:0.21913"
       id="rect520-9"
       width="54.151386"
       height="1.8502623"
       x="63.973946"
       y="85.295197" />
    <rect
       style="fill:#241c1c;stroke-width:0.21913"
       id="rect520-9-5"
       width="54.151386"
       height="1.8502623"
       x="63.143486"
       y="60.470852" />
    <rect
       style="fill:#241c1c;stroke-width:0.281833"
       id="rect520-9-5-0"
       width="99.978172"
       height="1.6577479"
       x="10.690318"
       y="-105.44257"
       transform="matrix(-0.00277338,0.99999615,-0.99995532,-0.00945345,0,0)" />
    <text
       xml:space="preserve"
       transform="scale(0.26458334)"
       id="text3987"
       style="fill:black;fill-opacity:1;line-height:1.25;stroke:none;font-family:sans-serif;font-style:normal;font-weight:normal;font-size:40px;white-space:pre;shape-inside:url(#rect3989)" />
    <text
       xml:space="preserve"
       transform="scale(0.26458334)"
       id="text6325"
       style="font-style:normal;font-weight:normal;font-size:40px;line-height:1.25;font-family:sans-serif;white-space:pre;shape-inside:url(#rect6327);fill:#000000;fill-opacity:1;stroke:none" />
    <text
       xml:space="preserve"
       style="font-style:normal;font-weight:normal;font-size:10.5833px;line-height:1.25;font-family:sans-serif;fill:#000000;fill-opacity:1;stroke:none;stroke-width:0.264583"
       x="14.097383"
       y="17.974163"
       id="text9721"><tspan
         id="tspan9719"
         style="stroke-width:0.264583"
         sodipodi:role="line" /></text>
    <text
       xml:space="preserve"
       transform="scale(0.26458334)"
       id="text12799"
       style="fill:black;fill-opacity:1;line-height:1.25;stroke:none;font-family:sans-serif;font-style:normal;font-weight:normal;font-size:40px;white-space:pre;shape-inside:url(#rect12801)" />
    <text
       xml:space="preserve"
       transform="scale(0.26458334)"
       id="text16053"
       style="fill:black;fill-opacity:1;line-height:1.25;stroke:none;font-family:sans-serif;font-style:normal;font-weight:normal;font-size:40px;white-space:pre;shape-inside:url(#rect16055)" />
    <text
       xml:space="preserve"
       transform="scale(0.26458334)"
       id="text17939"
       style="fill:black;fill-opacity:1;line-height:1.25;stroke:none;font-family:sans-serif;font-style:normal;font-weight:normal;font-size:40px;white-space:pre;shape-inside:url(#rect17941)" />
    <text
       xml:space="preserve"
       transform="scale(0.26458334)"
       id="text18869"
       style="fill:#280b0b;fill-opacity:1;line-height:1.25;stroke:none;font-family:sans-serif;font-style:normal;font-weight:normal;font-size:40px;white-space:pre;shape-inside:url(#rect18871)" />
    <text
       xml:space="preserve"
       transform="scale(0.26458334)"
       id="text21347"
       style="font-size:53.3333px;line-height:1.25;font-family:sans-serif;white-space:pre;shape-inside:url(#rect21349)"><tspan
         x="32.976562"
         y="100.96423"
         id="tspan580">
</tspan><tspan
         x="32.976562"
         y="167.63085"
         id="tspan582">
</tspan><tspan
         x="32.976562"
         y="234.29748"
         id="tspan584">
</tspan></text>
    <text
       xml:space="preserve"
       style="font-size:14.1111px;line-height:1.25;font-family:sans-serif;stroke-width:0.264583"
       x="19.555895"
       y="19.255035"
       id="text24259"><tspan
         sodipodi:role="line"
         id="tspan24257"
         style="stroke-width:0.264583"
         x="19.555895"
         y="19.255035" /></text>
    <text
       xml:space="preserve"
       style="font-size:50.80000125px;line-height:1.25;font-family:sans-serif;stroke-width:0.264583"
       x="17.449877"
       y="28.882553"
       id="text24571"><tspan
         sodipodi:role="line"
         id="tspan24569"
         style="stroke-width:0.264583;font-size:50.80000125px"
         x="17.449877"
         y="28.882553" /></text>
    <text
       xml:space="preserve"
       transform="scale(0.26458334)"
       id="text29871"
       style="line-height:1.25;font-family:sans-serif;font-size:53.33333333px;white-space:pre;shape-inside:url(#rect29873)" />
    <text
       xml:space="preserve"
       transform="scale(0.26458334)"
       id="text48499"
       style="line-height:1.25;font-family:sans-serif;font-size:53.33333333px;white-space:pre;shape-inside:url(#rect48501)" />
    <g
       aria-label="P"
       transform="scale(1.0238199,0.97673428)"
       id="text50127-79"
       style="font-size:38.0978px;line-height:1.25;stroke-width:0.198425">
      <path
         d="m 37.793951,56.771084 q 3.404247,-0.05581 4.538996,-0.781302 1.804436,-1.153352 1.804436,-4.966852 0,-2.604342 -0.874314,-4.204152 -0.874315,-1.59981 -3.34844,-1.59981 -1.134749,0 -1.637015,0.279037 -0.483663,0.260434 -0.483663,1.041736 z m -9.338426,11.905563 q 1.878847,-0.130217 2.51133,-0.781302 0.651085,-0.669688 0.651085,-2.697354 v -16.83521 q 0,-2.157884 -0.651085,-2.715957 -0.651086,-0.576676 -2.51133,-0.781302 v -0.967327 h 12.259009 q 4.87384,0 7.403772,1.581207 2.548535,1.581208 2.548535,5.431913 0,1.878847 -1.004532,3.534464 -0.98593,1.637015 -3.27403,2.641547 -1.730027,0.706893 -3.460054,0.855712 -1.730027,0.14882 -5.134274,0.14882 v 7.106133 q 0,2.102076 0.706893,2.753161 0.706892,0.651086 2.641546,0.725495 v 0.967327 H 28.455525 Z"
         style="font-weight:bold;font-family:Times;-inkscape-font-specification:'Times Bold'"
         id="path273" />
    </g>
    <g
       aria-label="C"
       transform="scale(1.0238199,0.97673428)"
       id="text50127"
       style="font-size:38.0978px;line-height:1.25;stroke-width:0.198425">
      <path
         d="m 39.860085,14.942306 q 2.381113,0 4.818033,0.892917 2.43692,0.874315 2.715956,0.874315 0.725496,0 1.153352,-0.558073 0.446458,-0.558074 0.558073,-1.171954 h 1.060339 v 8.91057 H 49.198511 Q 47.82193,20.9881 46.389542,19.31388 q -2.678751,-3.088006 -6.064396,-3.088006 -3.832103,0 -5.450515,3.311235 -1.59981,3.292632 -1.59981,8.854762 0,4.092538 0.948724,6.734084 1.767232,4.94825 6.566662,4.94825 2.939186,0 5.469118,-1.637015 1.450991,-0.948724 3.42285,-3.032198 l 1.134749,0.930122 q -2.232293,2.492727 -3.925116,3.608874 -3.013595,1.990461 -6.696879,1.990461 -5.63654,0 -9.45004,-3.348439 -4.222755,-3.701886 -4.222755,-9.970909 0,-6.213216 4.03673,-10.063921 3.794898,-3.608874 9.301221,-3.608874 z m -0.09301,-0.09301 z"
         style="font-weight:bold;font-family:Times;-inkscape-font-specification:'Times Bold'"
         id="path270" />
    </g>
    <g
       aria-label="G"
       transform="scale(1.0238199,0.97673428)"
       id="text50127-79-8"
       style="font-size:38.0978px;line-height:1.25;stroke-width:0.198425">
      <path
         d="m 25.912113,84.672094 q 0,-5.692347 3.664681,-9.580258 3.794898,-3.999525 9.691872,-3.999525 2.36251,0 4.706418,0.892917 2.343908,0.874315 2.920583,0.874315 0.613881,0 0.98593,-0.427856 0.372049,-0.427856 0.61388,-1.302171 h 1.06034 v 8.91057 H 48.58849 q -1.376581,-2.901981 -2.808969,-4.576201 -2.678752,-3.088005 -6.064396,-3.088005 -3.683284,0 -5.376106,3.19962 -1.692822,3.19962 -1.692822,9.003582 0,4.762225 1.562605,8.501316 1.581207,3.720488 6.082998,3.720488 2.43692,0 3.27403,-1.023134 0.483664,-0.576676 0.483664,-1.74863 v -4.018127 q 0,-1.730027 -1.060339,-2.269498 -0.688291,-0.334844 -2.790367,-0.372049 v -0.967327 h 13.058915 v 0.967327 q -1.971859,0.07441 -2.622945,0.799905 -0.632483,0.706893 -0.632483,2.678752 v 4.855237 q -1.264966,0.781303 -4.092537,1.562605 -2.827571,0.781303 -6.32483,0.781303 -6.343433,0 -10.138331,-3.999525 -3.534464,-3.739091 -3.534464,-9.375631 z m 13.41236,-13.672795 z"
         style="font-weight:bold;font-family:Times;-inkscape-font-specification:'Times Bold'"
         id="path276" />
    </g>
    <text
       xml:space="preserve"
       style="font-size:38.0978px;line-height:1.25;font-family:sans-serif;stroke-width:0.198425"
       x="20.251345"
       y="72.490486"
       id="text50127-7"
       transform="scale(1.0238199,0.97673428)"><tspan
         sodipodi:role="line"
         id="tspan50125-9"
         style="font-style:normal;font-variant:normal;font-weight:bold;font-stretch:normal;font-size:38.0978px;font-family:Times;-inkscape-font-specification:'Times Bold';stroke-width:0.198425"
         x="20.251345"
         y="72.490486" /></text>
  </g>
</svg>
